<?xml version="1.0" encoding="utf-8"?>
<!-- Generator: Adobe Illustrator 27.3.1, SVG Export Plug-In . SVG Version: 6.00 Build 0)  -->
<svg version="1.1" id="Layer_1" xmlns="http://www.w3.org/2000/svg" xmlns:xlink="http://www.w3.org/1999/xlink" x="0px" y="0px"
	 viewBox="0 0 1080 217" style="enable-background:new 0 0 1080 217;" xml:space="preserve">
<style type="text/css">
	.st0{fill:#FFFFFF;}
	.st1{fill:#E7E8EA;}
	.st2{fill:#25282E;}
	.st3{fill:#007AFF;}
	.st4{fill:#E9EAEC;}
	.st5{fill:#2A2D34;}
</style>
<g>
	<g id="XMLID_00000123399594282246625040000009655373803159054980_">
		<g id="XMLID_00000107554487357001585730000018185851947006184343_">
			<path id="XMLID_00000015317051531121525620000012395785009507150239_" class="st2" d="M249.89,67h17.89l19.83,31.91L307.45,67
				h17.89v75.46h-16.39V93.19l-21.23,32.23h-0.43l-21.02-31.91v48.94h-16.38V67z"/>
			<path id="XMLID_00000103260013041291759160000010646939550823226545_" class="st2" d="M343.46,67h56.81v14.77h-40.42v15.31h35.57
				v14.77h-35.57v15.85h40.96v14.77h-57.35V67z"/>
			<path id="XMLID_00000156574845902340319130000010607983881350311097_" class="st2" d="M416.51,67h56.81v14.77h-40.42v15.31h35.57
				v14.77h-35.57v15.85h40.96v14.77h-57.35V67z"/>
			<path id="XMLID_00000052092479695053579250000015340009499649794982_" class="st2" d="M520.84,143.75
				c-5.53,0-10.67-1.01-15.41-3.02s-8.84-4.76-12.29-8.25c-3.45-3.48-6.14-7.6-8.08-12.34c-1.94-4.74-2.91-9.81-2.91-15.2v-0.21
				c0-5.39,0.97-10.44,2.91-15.15c1.94-4.71,4.64-8.84,8.08-12.4c3.45-3.56,7.58-6.36,12.4-8.41c4.81-2.05,10.13-3.07,15.95-3.07
				c3.52,0,6.74,0.29,9.65,0.86c2.91,0.58,5.55,1.37,7.92,2.37c2.37,1.01,4.56,2.23,6.58,3.66c2.01,1.44,3.88,3.02,5.61,4.74
				l-10.56,12.18c-2.95-2.66-5.95-4.74-9-6.25c-3.05-1.51-6.49-2.26-10.3-2.26c-3.16,0-6.09,0.61-8.78,1.83
				c-2.69,1.22-5.01,2.91-6.95,5.07c-1.94,2.16-3.45,4.65-4.53,7.49c-1.08,2.84-1.62,5.88-1.62,9.11v0.21
				c0,3.23,0.54,6.29,1.62,9.16c1.08,2.88,2.57,5.39,4.47,7.55c1.9,2.16,4.2,3.86,6.9,5.12c2.69,1.26,5.66,1.89,8.89,1.89
				c4.31,0,7.96-0.79,10.94-2.37c2.98-1.58,5.95-3.74,8.89-6.47l10.56,10.67c-1.94,2.09-3.95,3.95-6.04,5.61
				c-2.09,1.65-4.37,3.07-6.85,4.26c-2.48,1.19-5.19,2.09-8.14,2.69C527.81,143.44,524.51,143.75,520.84,143.75z"/>
			<path id="XMLID_00000065077003852590595390000015355245906160245662_" class="st2" d="M564.34,67h34.49
				c9.56,0,16.89,2.55,21.99,7.65c4.31,4.31,6.47,10.06,6.47,17.25v0.22c0,6.11-1.49,11.08-4.47,14.93
				c-2.98,3.84-6.88,6.67-11.7,8.46l18.43,26.95h-19.4l-16.17-24.15h-0.22h-12.83v24.15h-16.6V67z M597.76,103.65
				c4.09,0,7.24-0.97,9.43-2.91c2.19-1.94,3.29-4.53,3.29-7.76v-0.21c0-3.59-1.15-6.29-3.45-8.08c-2.3-1.8-5.5-2.69-9.59-2.69
				h-16.49v21.67H597.76z"/>
			<path id="XMLID_00000150071968823458777590000014841580353875728028_" class="st2" d="M678.93,143.75
				c-5.82,0-11.18-1.02-16.06-3.07c-4.89-2.05-9.11-4.81-12.67-8.3c-3.56-3.48-6.32-7.58-8.3-12.29c-1.98-4.71-2.96-9.76-2.96-15.15
				v-0.21c0-5.39,1-10.44,3.02-15.15c2.01-4.71,4.8-8.84,8.35-12.4c3.56-3.56,7.8-6.36,12.72-8.41c4.92-2.05,10.29-3.07,16.11-3.07
				s11.17,1.02,16.06,3.07c4.89,2.05,9.11,4.81,12.67,8.3c3.56,3.49,6.32,7.58,8.3,12.29c1.98,4.71,2.96,9.76,2.96,15.15v0.21
				c0,5.39-1.01,10.44-3.02,15.15c-2.01,4.71-4.8,8.84-8.35,12.4c-3.56,3.56-7.8,6.36-12.72,8.41
				C690.12,142.72,684.75,143.75,678.93,143.75z M679.14,128.44c3.31,0,6.36-0.61,9.16-1.83c2.8-1.22,5.19-2.91,7.17-5.07
				c1.97-2.16,3.52-4.65,4.64-7.49c1.11-2.84,1.67-5.88,1.67-9.11v-0.21c0-3.23-0.56-6.29-1.67-9.16c-1.12-2.87-2.69-5.39-4.74-7.55
				c-2.05-2.16-4.47-3.86-7.28-5.12c-2.8-1.26-5.86-1.89-9.16-1.89c-3.38,0-6.45,0.61-9.22,1.83c-2.77,1.22-5.14,2.91-7.11,5.07
				c-1.98,2.16-3.52,4.65-4.64,7.49c-1.11,2.84-1.67,5.88-1.67,9.11v0.21c0,3.23,0.56,6.29,1.67,9.16c1.11,2.88,2.69,5.39,4.74,7.55
				s4.45,3.86,7.22,5.12C672.69,127.81,675.77,128.44,679.14,128.44z"/>
			<path id="XMLID_00000011024599806402213020000007450219632203743616_" class="st3" d="M770.54,143.75
				c-23.71,0-38.37-17.24-38.37-38.9c0-20.8,15.19-39.12,37.83-39.12c12.72,0,20.58,3.67,28.13,10.02l-5.5,6.47
				c-5.82-5.07-12.28-8.62-22.95-8.62c-16.7,0-28.67,14.12-28.67,31.04c0,18.11,11.53,31.47,29.85,31.47
				c8.62,0,16.6-3.34,21.77-7.54V109.8h-22.95v-7.65h31.14v30.07C793.82,138.47,783.26,143.75,770.54,143.75z"/>
			<path id="XMLID_00000094612887810264633180000006767337907588129447_" class="st3" d="M885.24,142.45h-9.16l-8.84-19.94h-41.06
				l-8.94,19.94h-8.73l34.38-75.98h7.98L885.24,142.45z M846.77,76.39l-17.24,38.47h34.38L846.77,76.39z"/>
			<path id="XMLID_00000047758611556384224220000004458591790168914873_" class="st3" d="M912.78,142.45h-8.62V74.88h-25.33v-7.87
				h59.27v7.87h-25.33V142.45z"/>
			<path id="XMLID_00000127036955337044060610000003777990557361583030_" class="st3" d="M1005.5,74.78h-46.01v25.76h41.16v7.76
				h-41.16v26.4h46.55v7.76h-55.07V67.02h54.53V74.78z"/>
		</g>
		<polygon id="XMLID_00000114057807974254236850000011677610518450957223_" class="st2" points="195.69,153.39 195.69,12 
			73.24,82.69 103.86,100.37 103.86,100.37 103.91,100.4 103.91,100.34 165.08,65.02 165.08,171.06 165.08,171.06 165.08,171.06 
			195.69,153.39 195.69,153.39 		"/>
		<polygon id="XMLID_00000016045894915858006420000016303451734583079100_" class="st3" points="73.25,118.04 73.24,118.04 
			73.25,118.04 103.91,135.74 103.91,171.03 103.86,171.06 42.64,135.71 42.64,65.02 68.27,79.82 98.88,62.15 12.03,12 
			12.03,153.39 103.91,206.44 103.91,206.37 134.52,188.7 134.52,118.07 103.86,100.37 		"/>
	</g>
	<g>
		<path class="st3" d="M1022.48,66.66h18.71v2.35h-7.92v18.87h-2.81V69.01h-7.98V66.66z M1065.99,87.87l-0.05-16.36l-8.74,13.75
			h-1.28l-8.74-13.45v16.05h-2.71V66.66h2.3l9.82,15.34l9.76-15.34h2.25l0.05,21.22H1065.99z"/>
	</g>
</g>
</svg>
